<svg width="9" height="16" viewBox="0 0 9 16" fill="none" xmlns="http://www.w3.org/2000/svg">
<path d="M7.26693 3.99984V11.6665C7.26693 13.1398 6.07359 14.3332 4.60026 14.3332C3.12693 14.3332 1.93359 13.1398 1.93359 11.6665V3.33317C1.93359 2.41317 2.68026 1.6665 3.60026 1.6665C4.52026 1.6665 5.26693 2.41317 5.26693 3.33317V10.3332C5.26693 10.6998 4.96693 10.9998 4.60026 10.9998C4.23359 10.9998 3.93359 10.6998 3.93359 10.3332V3.99984H2.93359V10.3332C2.93359 11.2532 3.68026 11.9998 4.60026 11.9998C5.52026 11.9998 6.26693 11.2532 6.26693 10.3332V3.33317C6.26693 1.85984 5.07359 0.666504 3.60026 0.666504C2.12693 0.666504 0.933594 1.85984 0.933594 3.33317V11.6665C0.933594 13.6932 2.57359 15.3332 4.60026 15.3332C6.62693 15.3332 8.26693 13.6932 8.26693 11.6665V3.99984H7.26693Z" fill="#2563EA"/>
</svg>
