<svg width="21" height="20" viewBox="0 0 21 20" fill="none" xmlns="http://www.w3.org/2000/svg">
<path d="M10.3335 0C4.8135 0 0.333496 4.48 0.333496 10C0.333496 15.52 4.8135 20 10.3335 20C15.8535 20 20.3335 15.52 20.3335 10C20.3335 4.48 15.8535 0 10.3335 0ZM5.4035 16.28C5.8335 15.38 8.4535 14.5 10.3335 14.5C12.2135 14.5 14.8435 15.38 15.2635 16.28C13.9035 17.36 12.1935 18 10.3335 18C8.4735 18 6.7635 17.36 5.4035 16.28ZM16.6935 14.83C15.2635 13.09 11.7935 12.5 10.3335 12.5C8.8735 12.5 5.4035 13.09 3.9735 14.83C2.9535 13.49 2.3335 11.82 2.3335 10C2.3335 5.59 5.9235 2 10.3335 2C14.7435 2 18.3335 5.59 18.3335 10C18.3335 11.82 17.7135 13.49 16.6935 14.83ZM10.3335 4C8.3935 4 6.8335 5.56 6.8335 7.5C6.8335 9.44 8.3935 11 10.3335 11C12.2735 11 13.8335 9.44 13.8335 7.5C13.8335 5.56 12.2735 4 10.3335 4ZM10.3335 9C9.5035 9 8.8335 8.33 8.8335 7.5C8.8335 6.67 9.5035 6 10.3335 6C11.1635 6 11.8335 6.67 11.8335 7.5C11.8335 8.33 11.1635 9 10.3335 9Z" fill="#3B81F5"/>
</svg>
