<svg width="141" height="33" viewBox="0 0 141 33" fill="none" xmlns="http://www.w3.org/2000/svg">
<g clip-path="url(#clip0_1020_2944)">
<path d="M38.1008 25.7324C37.8188 25.7324 37.6785 25.5921 37.6785 25.3101V6.43011C37.6785 6.14814 37.8188 6.00781 38.1008 6.00781H51.908C52.1899 6.00781 52.3303 6.14814 52.3303 6.43011V8.93765C52.3303 9.21962 52.1899 9.35994 51.908 9.35994H41.5657V14.2072H48.1034C48.3854 14.2072 48.5257 14.3475 48.5257 14.6295V16.9967C48.5257 17.2786 48.3854 17.419 48.1034 17.419H41.5657V25.3088C41.5657 25.5908 41.4254 25.7311 41.1434 25.7311H38.0995L38.1008 25.7324Z" fill="white"/>
<path d="M55.3744 25.7324C55.0925 25.7324 54.9521 25.5921 54.9521 25.3101V6.43011C54.9521 6.14814 55.0925 6.00781 55.3744 6.00781H58.5299C58.8118 6.00781 58.9521 6.14814 58.9521 6.43011V25.3101C58.9521 25.5921 58.8118 25.7324 58.5299 25.7324H55.3744Z" fill="white"/>
<path d="M63.3481 25.7324C63.0661 25.7324 62.9258 25.5921 62.9258 25.3101V6.43011C62.9258 6.14814 63.0661 6.00781 63.3481 6.00781H66.4759C66.7579 6.00781 66.8982 6.14814 66.8982 6.43011V14.236L74.3369 6.23339C74.4773 6.09306 74.6464 6.00781 74.8445 6.00781H78.7894C79.1553 6.00781 79.2681 6.26093 79.015 6.51535L72.0825 13.8976L79.832 25.2262C80.0287 25.5645 79.9448 25.7337 79.55 25.7337H75.6891C75.4923 25.7337 75.3232 25.6498 75.1815 25.4517L69.3769 16.8576L66.8969 19.478V25.3114C66.8969 25.5934 66.7566 25.7337 66.4746 25.7337H63.3468L63.3481 25.7324Z" fill="white"/>
<path d="M82.7631 25.7324C82.4812 25.7324 82.3408 25.5921 82.3408 25.3101V6.43011C82.3408 6.14814 82.4812 6.00781 82.7631 6.00781H85.9185C86.2005 6.00781 86.3408 6.14814 86.3408 6.43011V25.3101C86.3408 25.5921 86.2005 25.7324 85.9185 25.7324H82.7631Z" fill="white"/>
<path d="M106.996 25.2531L100.008 6.34422C99.9237 6.11865 99.782 6.00586 99.5276 6.00586H96.1755C95.9223 6.00586 95.7807 6.11865 95.6955 6.34422L88.7066 25.2531C88.5938 25.5626 88.7066 25.7318 89.045 25.7318H92.3971C92.3971 25.7318 92.3984 25.7318 92.3997 25.7318C92.5322 25.7318 92.6476 25.64 92.6909 25.5141L97.5407 11.4275C97.6364 11.1482 98.0325 11.1482 98.1282 11.4275L100.485 18.3193H100.48L102.932 25.5075C102.969 25.6137 103.057 25.6977 103.167 25.7186C103.209 25.7265 103.253 25.7304 103.302 25.7304H106.655C106.993 25.7304 107.105 25.5613 106.993 25.2518L106.996 25.2531Z" fill="white"/>
<path d="M22.8787 20.151C23.1082 20.1248 23.3075 20.3044 23.3049 20.5352C23.3049 20.5366 23.3049 20.5379 23.3049 20.5392C23.2931 21.991 22.8262 23.3549 22.219 24.6651C20.7108 27.9215 18.2649 30.3175 15.2656 32.1982C14.8656 32.4487 14.459 32.6848 14.0459 32.909C13.7902 33.048 13.478 32.8618 13.478 32.5707V21.0323C13.478 20.8198 13.6498 20.648 13.8623 20.6493C15.3941 20.652 17.0098 20.6113 18.7056 20.509C20.16 20.4225 21.5528 20.3005 22.8774 20.1497L22.8787 20.151Z" fill="#00B7FE"/>
<path d="M23.3207 16.8872C23.3207 17.0879 23.1672 17.2531 22.9679 17.2689C20.7607 17.4407 18.4485 17.5652 16.038 17.6282C14.0577 17.678 12.143 17.6846 10.2964 17.6518C10.0813 17.6479 9.90689 17.821 9.90689 18.0348V32.6144C9.90689 32.9056 9.59475 33.0918 9.33902 32.9528C7.33508 31.8669 5.4977 30.5423 3.92262 28.8426C2.00918 26.777 0.637377 24.4125 0.120656 21.6059C0.0419672 21.1797 0.0052459 20.7521 0.0052459 20.3193C0.0118033 18.6026 0.00786885 11.2426 0.00786885 9.5259C0.00786885 9.16131 0.00786885 8.79672 0.00918033 8.43344C0.00918033 7.66098 0.0104918 6.89115 0.0104918 6.11869C0.0104918 5.4118 0.00786885 4.70623 0 3.99803V3.97705C0 3.50623 0.196721 3.24787 0.620328 3.06295C2.54295 2.21836 4.57574 1.79738 6.63082 1.47082C8.20328 1.21902 9.78754 1.07082 11.377 1.00787C11.5161 1.00131 11.6564 1 11.7954 1C12.7003 1 13.6039 1.10492 14.5036 1.19803C16.5062 1.41049 18.4892 1.72525 20.4315 2.26689C21.2315 2.49115 22.0118 2.77049 22.7738 3.10361C23.137 3.2623 23.3207 3.49967 23.3207 3.91148C23.318 4.91475 23.3193 6.34164 23.3207 7.96C23.3207 8.20262 23.099 8.38623 22.8603 8.3377C19.7443 7.69377 15.8859 7.17574 11.4584 7.19147C11.061 7.19147 10.6675 7.19803 10.278 7.20721C10.0695 7.21246 9.90557 7.38295 9.90557 7.59148V9.96918C9.90557 10.1843 10.0813 10.3574 10.2964 10.3534C12.2518 10.3141 14.4197 10.3338 16.7593 10.4518C19.0282 10.5685 21.1108 10.7587 22.9849 10.9843C23.1777 11.0079 23.322 11.1705 23.322 11.3646C23.3246 13.257 23.3246 15.1941 23.322 16.8885L23.3207 16.8872Z" fill="#004AE0"/>
</g>
<path d="M116.299 5.2H117.586V11.5H116.299V5.2ZM117.082 6.289V5.2H118.333C118.831 5.2 119.254 5.281 119.602 5.443C119.956 5.605 120.226 5.836 120.412 6.136C120.598 6.436 120.691 6.793 120.691 7.207C120.691 7.615 120.598 7.972 120.412 8.278C120.226 8.578 119.956 8.809 119.602 8.971C119.254 9.133 118.831 9.214 118.333 9.214H117.082V8.125H118.333C118.675 8.125 118.945 8.047 119.143 7.891C119.341 7.735 119.44 7.507 119.44 7.207C119.44 6.901 119.341 6.673 119.143 6.523C118.945 6.367 118.675 6.289 118.333 6.289H117.082ZM121.579 4.48H122.749V11.5H121.579V4.48ZM125.105 9.88C125.105 10.15 125.159 10.36 125.267 10.51C125.375 10.654 125.549 10.726 125.789 10.726C125.957 10.726 126.101 10.693 126.221 10.627C126.347 10.555 126.443 10.456 126.509 10.33C126.581 10.204 126.617 10.054 126.617 9.88V7.36H127.778V11.5H126.617V10.87C126.485 11.104 126.317 11.284 126.113 11.41C125.909 11.53 125.66 11.59 125.366 11.59C124.874 11.59 124.505 11.449 124.259 11.167C124.019 10.885 123.899 10.498 123.899 10.006V7.36H125.105V9.88ZM129.133 10.069C129.307 10.231 129.469 10.363 129.619 10.465C129.769 10.561 129.91 10.633 130.042 10.681C130.18 10.729 130.309 10.753 130.429 10.753C130.585 10.753 130.705 10.72 130.789 10.654C130.873 10.582 130.915 10.486 130.915 10.366C130.915 10.258 130.879 10.168 130.807 10.096C130.741 10.018 130.642 9.949 130.51 9.889C130.378 9.829 130.21 9.766 130.006 9.7C129.814 9.628 129.628 9.544 129.448 9.448C129.268 9.346 129.118 9.214 128.998 9.052C128.884 8.884 128.827 8.671 128.827 8.413C128.827 8.167 128.893 7.96 129.025 7.792C129.157 7.618 129.334 7.489 129.556 7.405C129.784 7.315 130.036 7.27 130.312 7.27C130.546 7.27 130.765 7.3 130.969 7.36C131.173 7.42 131.362 7.501 131.536 7.603C131.71 7.699 131.863 7.813 131.995 7.945L131.482 8.665C131.332 8.503 131.152 8.371 130.942 8.269C130.738 8.167 130.537 8.116 130.339 8.116C130.207 8.116 130.102 8.143 130.024 8.197C129.952 8.245 129.916 8.32 129.916 8.422C129.916 8.512 129.952 8.593 130.024 8.665C130.102 8.731 130.21 8.791 130.348 8.845C130.492 8.899 130.654 8.965 130.834 9.043C131.056 9.127 131.26 9.223 131.446 9.331C131.638 9.433 131.791 9.562 131.905 9.718C132.019 9.874 132.076 10.078 132.076 10.33C132.076 10.744 131.941 11.068 131.671 11.302C131.401 11.53 131.029 11.644 130.555 11.644C130.261 11.644 129.991 11.605 129.745 11.527C129.505 11.449 129.286 11.347 129.088 11.221C128.896 11.089 128.722 10.948 128.566 10.798L129.133 10.069Z" fill="#00B7FE"/>
<rect x="108.5" y="0.5" width="31.2302" height="15" rx="7.5" stroke="#00B7FE"/>
<defs>
<clipPath id="clip0_1020_2944">
<rect width="107.04" height="32" fill="white" transform="translate(0 1)"/>
</clipPath>
</defs>
</svg>
