<svg width="1600" height="190" viewBox="0 0 1600 190" fill="none" xmlns="http://www.w3.org/2000/svg">
<g clip-path="url(#clip0_694_2777)">
<path d="M1951.69 -336.999C1894.5 -251.698 1833.56 -172.576 1765.49 -111.771C1743.41 -92.0562 1720.46 -74.2007 1695.56 -64.5243C1644.79 -44.7924 1589.24 -60.0431 1535.98 -56.8021C1468.35 -52.6902 1403.92 -17.4708 1350.63 43.1774C1310.54 88.8147 1266.95 153.329 1218.01 173.905C1173.56 192.598 1115.66 125.499 1071.65 101.792C1026.56 77.5131 979.176 76.7029 936.837 96.7568C914.657 107.265 893.777 123.502 875.298 145.164C857.628 165.883 844.341 202.179 817.757 177.927C808.97 169.91 802.021 156.796 794.058 146.339C766.383 110.003 725.51 111.631 704.532 149.91" stroke="#042870" stroke-width="0.552088" stroke-miterlimit="10"/>
<path d="M1949.05 -334.227C1893.49 -248.058 1833.35 -168.272 1765.66 -107.706C1743.12 -87.5097 1719.59 -70.049 1694.33 -59.5419C1663.85 -46.9364 1631.62 -46.5836 1599.12 -47.6231C1576.94 -48.3303 1554.63 -49.6902 1532.67 -48.2555C1489.29 -45.4151 1447.07 -31.1603 1408.05 -6.89896C1385.23 7.28885 1363.52 24.9065 1343.29 45.7591C1329.07 60.3438 1314.46 77.0242 1299.39 93.3636C1278.19 116.285 1256.06 138.513 1232.73 153.805C1224.36 159.312 1215.84 163.925 1207.16 167.311C1171.29 181.266 1127.37 144.771 1088.65 118.664C1078.26 111.626 1068.25 105.335 1058.85 100.962C1020.22 82.7854 980.256 81.719 943.322 95.8415C936.963 98.2706 930.691 101.151 924.525 104.475C902.538 116.322 881.816 133.752 863.232 156.105C852.227 169.346 842.784 188.254 830.805 195.266C823.429 199.586 815.121 199.328 804.906 190.603C795.98 182.98 788.791 170.439 780.623 160.394C752.268 125.471 711.038 126.862 689.286 164.769" stroke="#042870" stroke-width="0.552088" stroke-miterlimit="10"/>
<path d="M1946.41 -331.462C1892.48 -244.418 1833.13 -163.974 1765.83 -103.647C1742.82 -82.9631 1718.72 -65.8976 1693.1 -54.5708C1662.31 -41.0904 1629.71 -39.7504 1596.78 -40.0736C1574.3 -40.2906 1551.67 -41.2845 1529.35 -39.7198C1485.26 -36.6426 1442.23 -23.1109 1402.32 -0.525447C1378.99 12.6773 1356.74 29.0009 1335.94 48.3298C1321.28 61.8204 1306.26 77.2707 1290.79 92.3496C1269.01 113.482 1246.33 133.862 1222.42 148.064C1213.86 153.188 1205.15 157.51 1196.3 160.712C1159.6 173.89 1115.15 139.462 1076.06 115.859C1065.6 109.475 1055.51 103.903 1046.05 100.138C1007.24 84.6891 967.453 85.9972 930.836 102.406C924.534 105.223 918.32 108.497 912.207 112.193C890.41 125.379 869.845 144.003 851.161 167.051C840.091 180.711 830.464 199.729 818.28 207.043C810.771 211.55 802.347 211.489 792.049 203.285C782.979 196.057 775.555 184.093 767.183 174.455C738.15 140.943 696.557 142.099 674.038 179.628" stroke="#042870" stroke-width="0.552088" stroke-miterlimit="10"/>
<path d="M1943.78 -328.695C1891.47 -240.783 1832.92 -159.67 1766 -99.5872C1742.53 -78.4213 1717.85 -61.7511 1691.87 -49.5936C1660.77 -35.2327 1627.8 -32.9111 1594.45 -32.518C1571.67 -32.2393 1548.71 -32.8676 1526.03 -31.1834C1481.25 -27.8643 1437.4 -15.0607 1396.6 5.84293C1372.75 18.0665 1350 33.1972 1328.59 50.8958C1313.52 63.3617 1298.05 77.5074 1282.2 91.3305C1259.83 110.674 1236.6 129.206 1212.12 142.313C1203.37 147.052 1194.48 151.085 1185.45 154.107C1147.92 166.508 1102.92 134.317 1063.49 113.043C1052.94 107.352 1042.79 102.432 1033.27 99.2973C994.281 86.4691 954.659 90.2592 918.364 108.96C912.117 112.17 905.961 115.827 899.904 119.899C878.3 134.425 857.893 154.243 839.108 177.985C827.973 192.064 818.164 211.192 805.773 218.808C798.131 223.508 789.592 223.649 779.207 215.95C769.992 209.122 762.333 197.724 753.755 188.494C724.043 156.394 682.092 157.308 658.801 194.47" stroke="#042870" stroke-width="0.552088" stroke-miterlimit="10"/>
<path d="M1941.14 -325.923C1890.46 -237.143 1832.7 -155.366 1766.17 -95.517C1742.24 -73.8637 1717.01 -57.5024 1690.65 -44.6115C1659.26 -29.2676 1625.9 -26.0672 1592.12 -24.952C1569.05 -24.1834 1545.76 -24.4404 1522.72 -22.6316C1477.23 -19.0703 1432.57 -6.98975 1390.89 12.2325C1366.52 23.471 1343.23 37.3407 1321.25 53.4827C1305.74 64.8764 1289.85 77.7646 1273.61 90.3381C1250.66 107.893 1226.88 124.576 1201.82 136.588C1192.88 140.943 1183.8 144.687 1174.59 147.523C1136.24 159.147 1090.71 129.074 1050.91 110.248C1040.29 105.222 1030.07 100.983 1020.48 98.4782C981.329 88.2696 941.868 94.5421 905.889 115.529C899.696 119.128 893.597 123.172 887.597 127.622C866.187 143.487 845.933 164.498 827.047 188.931C815.848 203.429 805.857 222.66 793.259 230.584C785.485 235.477 776.826 235.821 766.361 228.631C756.998 222.204 749.109 211.377 740.326 202.554C709.933 171.867 667.622 172.544 643.563 209.328" stroke="#042870" stroke-width="0.552088" stroke-miterlimit="10"/>
<path d="M1938.51 -323.157C1889.45 -233.503 1832.49 -151.062 1766.34 -91.4572C1741.94 -69.322 1716.15 -53.3343 1689.42 -39.6398C1657.73 -23.3994 1624 -19.2334 1589.79 -17.4019C1566.41 -16.1376 1542.8 -16.029 1519.4 -14.1007C1473.21 -10.2976 1427.73 1.05444 1385.16 18.6008C1360.27 28.8601 1336.46 41.4573 1313.9 56.0482C1297.96 66.3639 1281.67 78.0757 1265.01 89.3189C1241.51 105.187 1217.13 119.811 1191.52 130.836C1182.38 134.77 1173.13 138.261 1163.73 140.913C1124.55 151.76 1078.49 123.799 1038.33 107.433C1027.63 103.071 1017.35 99.5121 1007.68 97.6381C968.372 90.0324 929.07 98.8041 893.407 122.083C887.273 126.076 881.231 130.502 875.281 135.33C854.065 152.539 833.965 174.745 814.977 199.867C803.713 214.783 793.538 234.125 780.736 242.35C772.828 247.436 764.051 247.983 753.506 241.303C743.996 235.276 735.875 225.02 726.887 216.604C695.817 187.329 653.146 187.77 628.314 224.182" stroke="#042870" stroke-width="0.552088" stroke-miterlimit="10"/>
<path d="M1935.87 -320.385C1888.44 -229.863 1832.28 -146.758 1766.52 -87.3925C1741.65 -64.7702 1715.28 -49.1668 1688.19 -34.6576C1656.2 -17.5207 1622.09 -12.3946 1587.46 -9.84133C1563.78 -8.08687 1539.84 -7.60691 1516.09 -5.55438C1469.2 -1.50901 1422.9 9.12006 1379.44 24.9796C1354.04 34.2538 1329.68 45.5847 1306.56 58.6242C1290.18 67.8622 1273.47 78.3329 1256.42 88.3097C1232.33 102.405 1207.4 115.148 1181.22 125.095C1171.89 128.639 1162.45 131.852 1152.88 134.312C1112.87 144.383 1066.28 118.533 1025.75 104.622C1014.98 100.925 1004.63 98.0398 994.89 96.808C955.422 91.8049 916.276 103.076 880.929 128.642C874.85 133.023 868.865 137.837 862.971 143.036C841.948 161.585 822.006 184.984 802.914 210.801C791.585 226.136 781.229 245.588 768.22 254.115C760.182 259.394 751.277 260.15 740.655 253.973C730.994 248.353 722.644 238.657 713.454 230.648C681.704 202.785 638.672 202.984 613.074 239.029" stroke="#042870" stroke-width="0.552088" stroke-miterlimit="10"/>
<path d="M1933.24 -317.618C1887.42 -226.227 1832.06 -142.459 1766.68 -83.3324C1741.35 -60.2282 1714.41 -45.0093 1686.96 -29.6855C1654.66 -11.6576 1620.18 -5.56051 1585.12 -2.29089C1561.15 -0.0407357 1536.88 0.804814 1512.76 2.97683C1465.18 7.26406 1418.07 17.165 1373.72 31.3482C1347.8 39.6428 1322.9 49.702 1299.21 61.1905C1282.39 69.3513 1265.26 78.5807 1247.82 87.2967C1223.15 99.6145 1197.66 110.481 1170.91 119.349C1161.4 122.504 1151.77 125.432 1142.02 127.708C1101.18 137.002 1054.07 113.258 1013.17 101.807C1002.32 98.7684 991.905 96.5637 982.091 95.9682C942.467 93.5563 903.472 107.339 868.444 135.196C862.419 139.965 856.494 145.173 850.655 150.743C829.826 170.632 810.037 195.224 790.844 221.732C779.45 237.485 768.91 257.048 755.696 265.876C747.526 271.343 738.497 272.318 727.799 266.634C717.985 261.42 709.409 252.29 700.014 244.688C667.586 218.231 624.195 218.199 597.823 253.866" stroke="#042870" stroke-width="0.552088" stroke-miterlimit="10"/>
<path d="M1930.6 -314.854C1886.42 -222.589 1831.85 -138.157 1766.86 -79.269C1741.06 -55.6773 1713.55 -40.8487 1685.73 -24.7048C1653.13 -5.79142 1618.28 1.28236 1582.79 5.27375C1558.52 8.01375 1533.92 9.23067 1509.45 11.5276C1461.16 16.0571 1413.24 25.2295 1368 37.7369C1341.56 45.0468 1316.13 53.8288 1291.87 63.7764C1274.6 70.8544 1257.06 78.8479 1239.23 86.2975C1213.97 96.843 1187.94 105.833 1160.61 113.618C1150.91 116.383 1141.1 119.027 1131.17 121.118C1089.5 129.634 1041.87 107.99 1000.59 99.0055C989.667 96.6264 979.19 95.1014 969.304 95.1422C929.523 95.3105 890.683 111.615 855.975 141.764C850.008 146.927 844.14 152.517 838.351 158.465C817.715 179.693 798.08 205.479 778.787 232.681C767.328 248.854 756.606 268.52 743.185 277.656C734.882 283.316 725.727 284.511 714.956 279.319C704.99 274.518 696.187 265.941 686.588 258.752C653.479 233.708 609.728 233.44 582.589 268.734" stroke="#042870" stroke-width="0.552088" stroke-miterlimit="10"/>
<path d="M1927.97 -312.082C1885.41 -218.948 1831.64 -133.853 1767.03 -75.2037C1740.76 -51.1302 1712.69 -36.6861 1684.5 -19.7272C1651.59 0.0716461 1616.37 8.1221 1580.45 12.8298C1555.89 16.0655 1530.96 17.6428 1506.13 20.064C1457.14 24.8353 1408.4 33.285 1362.28 44.1052C1335.32 50.4355 1309.35 57.9403 1284.52 66.3474C1266.81 72.3427 1248.85 79.1006 1230.63 85.2838C1204.79 94.0515 1178.21 101.171 1150.3 107.872C1140.41 110.247 1130.41 112.607 1120.3 114.514C1077.81 122.253 1029.65 102.704 988.005 96.1957C977.008 94.4752 966.46 93.6253 956.503 94.3079C916.57 97.0502 877.879 115.883 843.487 148.319C837.575 153.869 831.764 159.848 826.032 166.172C805.589 188.739 786.112 215.724 766.714 243.617C755.194 260.208 744.284 279.985 730.659 289.422C722.223 295.275 712.942 296.691 702.095 291.991C691.973 287.602 682.947 279.585 673.142 272.797C639.357 249.165 595.241 248.656 567.333 283.578" stroke="#042870" stroke-width="0.552088" stroke-miterlimit="10"/>
<path d="M1925.33 -309.315C1884.4 -215.313 1831.43 -129.548 1767.2 -71.1437C1740.46 -46.5827 1711.83 -32.5287 1683.27 -14.7497C1650.06 5.93502 1614.47 14.9613 1578.12 20.386C1553.25 24.1119 1528 26.0602 1502.81 28.6064C1453.12 33.62 1403.56 41.3412 1356.56 50.4855C1329.07 55.8311 1302.57 62.0531 1277.17 68.9249C1259.02 73.8319 1240.65 79.3597 1222.03 84.2821C1195.61 91.2669 1168.48 96.5211 1140 102.143C1129.92 104.129 1119.74 106.205 1109.45 107.926C1066.13 114.888 1017.45 97.4275 975.426 93.3972C964.354 92.3356 953.742 92.1601 943.71 93.4849C903.623 98.7903 865.084 120.162 831.008 154.89C825.151 160.834 819.397 167.195 813.721 173.897C793.472 197.803 774.149 225.982 754.653 254.564C743.068 271.573 731.977 291.46 718.144 301.199C709.575 307.245 700.168 308.887 689.249 304.673C678.971 300.702 669.715 293.268 659.712 286.859C625.227 264.758 580.774 263.893 552.092 298.443" stroke="#042870" stroke-width="0.552088" stroke-miterlimit="10"/>
<path d="M1922.69 -306.548C1883.38 -211.672 1831.21 -125.249 1767.37 -67.0841C1740.17 -42.0412 1710.96 -28.3769 1682.04 -9.77827C1648.52 11.7865 1612.56 21.7949 1575.78 27.9359C1550.62 32.1575 1525.04 34.4714 1499.49 37.137C1449.1 42.3925 1398.73 49.3855 1350.84 56.8535C1322.83 61.2195 1295.78 66.1541 1269.82 71.4902C1251.23 75.309 1232.44 79.6011 1213.44 83.2623C1186.43 88.4638 1158.76 91.8584 1129.7 96.3912C1119.43 97.9929 1109.06 99.779 1098.59 101.315C1054.44 107.501 1005.24 92.1234 962.844 90.5759C951.698 90.1675 941.019 90.6666 930.914 92.6445C890.673 100.502 852.283 124.424 818.525 161.438C812.726 167.771 807.03 174.525 801.407 181.598C781.351 206.844 762.182 236.216 742.585 265.494C730.936 282.922 719.66 302.914 705.624 312.959C696.925 319.198 687.387 321.072 676.396 317.333C665.96 313.786 656.483 306.9 646.274 300.892C611.112 280.203 566.296 279.102 536.847 313.279" stroke="#042870" stroke-width="0.552088" stroke-miterlimit="10"/>
<path d="M1920.06 -303.777C1882.37 -208.033 1831 -120.94 1767.54 -63.0137C1739.87 -37.4838 1710.09 -24.2147 1680.81 -4.79047C1646.99 17.6543 1610.66 28.6393 1573.45 35.5021C1547.99 40.2136 1522.08 42.8989 1496.18 45.6891C1445.08 51.1868 1393.9 57.4568 1345.11 63.2434C1316.59 66.6247 1289 70.2766 1262.48 74.0777C1243.44 76.8082 1224.23 79.8647 1204.84 82.265C1177.24 85.6836 1149.03 87.2181 1119.39 90.6613C1108.94 91.8734 1098.38 93.3754 1087.74 94.7321C1042.76 100.141 993.032 86.8408 950.267 87.787C939.048 88.0317 928.301 89.2055 918.125 91.8307C877.729 102.235 839.492 128.712 806.05 168.018C800.306 174.745 794.668 181.881 789.098 189.332C769.236 215.923 750.223 246.483 730.523 276.456C718.808 294.303 707.351 314.404 693.107 324.752C684.276 331.179 674.606 333.29 663.545 330.032C652.955 326.914 643.253 320.57 632.839 314.969C597.001 295.698 551.823 294.35 521.601 328.155" stroke="#042870" stroke-width="0.552088" stroke-miterlimit="10"/>
<path d="M1917.42 -301.01C1881.36 -204.398 1830.7 -116.871 1767.72 -58.9544C1739.54 -33.0437 1709.23 -20.0686 1679.59 0.180807C1645.45 23.5005 1608.75 35.4726 1571.12 43.0572C1545.36 48.2644 1519.12 51.3156 1492.86 54.2249C1441.07 59.9645 1389.07 65.506 1339.4 69.6112C1310.36 72.0129 1282.22 74.3661 1255.13 76.6427C1235.66 78.2796 1216.03 80.1004 1196.25 81.2504C1168.07 82.8861 1139.31 82.5602 1109.09 84.9145C1098.45 85.7424 1087.71 86.955 1076.88 88.1267C1031.08 92.7585 980.828 81.5305 937.689 84.9708C926.397 85.8687 915.582 87.7172 905.333 90.99C864.781 103.935 826.697 132.974 793.574 174.566C787.885 181.681 782.304 189.205 776.791 197.033C757.122 224.963 738.263 256.717 718.461 287.38C706.682 305.645 695.041 325.857 680.593 336.506C671.628 343.126 661.831 345.474 650.698 342.691C639.951 340.002 630.028 334.201 619.412 329.007C582.897 311.153 537.355 309.564 506.367 342.996" stroke="#042870" stroke-width="0.552088" stroke-miterlimit="10"/>
<path d="M1914.79 -298.244C1880.35 -200.758 1830.49 -112.572 1767.89 -54.8947C1739.24 -28.5021 1708.36 -15.9226 1678.36 5.15242C1643.91 29.347 1606.85 42.3064 1568.78 50.6072C1542.73 56.3046 1516.16 59.7269 1489.54 62.7612C1437.04 68.7375 1384.23 73.5615 1333.67 75.9853C1304.11 77.4023 1275.43 78.4622 1247.78 79.2141C1227.86 79.752 1207.82 80.3479 1187.65 80.237C1158.88 80.0844 1129.58 77.9093 1098.78 79.1689C1087.95 79.613 1077.02 80.5409 1066.02 81.5223C1019.39 85.3769 968.616 76.2211 925.103 82.1555C913.734 83.7069 902.855 86.2298 892.532 90.1502C851.819 105.626 813.893 137.236 781.087 181.12C775.455 188.623 769.932 196.535 764.472 204.741C744.997 234.009 726.293 266.963 706.389 298.315C694.545 316.994 682.722 337.316 668.067 348.272C658.97 355.085 649.042 357.676 637.841 355.362C626.935 353.109 616.794 347.838 605.97 343.052C568.779 326.61 522.876 324.784 491.114 357.839" stroke="#042870" stroke-width="0.552088" stroke-miterlimit="10"/>
<path d="M1912.15 -295.473C1879.34 -197.118 1830.28 -108.263 1768.06 -50.8303C1738.95 -23.9557 1707.49 -11.7714 1677.13 10.1343C1642.38 35.2038 1604.94 49.1503 1566.45 58.1675C1540.1 64.3605 1513.21 68.1483 1486.23 71.3017C1433.03 77.5199 1379.4 81.6157 1327.95 82.3637C1297.88 82.8011 1268.65 82.5622 1240.44 81.7897C1220.08 81.234 1199.62 80.5942 1179.05 79.2279C1149.7 77.2811 1119.85 73.2627 1088.48 73.4272C1077.47 73.4871 1066.35 74.1256 1055.17 74.9217C1007.71 77.9996 956.416 70.9047 912.529 79.3442C901.086 81.5431 890.14 84.7407 879.744 89.3198C838.874 107.32 801.1 141.508 768.613 187.684C763.037 195.581 757.571 203.881 752.167 212.458C732.885 243.066 714.338 277.213 694.331 309.261C682.422 328.358 670.418 348.79 655.555 360.048C646.325 367.054 636.268 369.893 624.994 368.044C613.931 366.225 603.569 361.491 592.539 357.113C554.671 342.083 508.405 340.015 475.876 372.702" stroke="#042870" stroke-width="0.552088" stroke-miterlimit="10"/>
<path d="M1909.52 -292.706C1878.33 -193.483 1830.15 -103.735 1768.23 -46.7702C1738.69 -19.3016 1706.62 -7.62467 1675.9 15.1063C1640.83 41.0506 1603.04 55.984 1564.11 65.7178C1537.47 72.4008 1510.25 76.5545 1482.9 79.8383C1429.01 86.2987 1374.56 89.666 1322.23 88.7323C1291.63 88.185 1261.87 86.6469 1233.09 84.3559C1212.28 82.6954 1191.41 80.831 1170.45 78.2145C1140.51 74.4792 1110.12 68.6118 1078.17 67.6816C1066.97 67.3573 1055.67 67.7063 1044.31 68.3175C996.018 70.6183 944.201 65.5846 899.942 76.5346C888.426 79.3867 877.408 83.2539 866.945 88.4854C825.913 109.005 788.299 145.776 756.128 194.239C750.609 202.523 745.198 211.211 739.847 220.165C720.758 252.113 702.365 287.453 682.257 320.191C670.283 339.708 658.095 360.249 643.031 371.808C633.671 379.002 623.481 382.096 612.138 380.704C600.918 379.326 590.335 375.085 579.099 371.152C540.557 357.406 493.927 355.23 460.624 387.54" stroke="#042870" stroke-width="0.552088" stroke-miterlimit="10"/>
<path d="M1906.88 -289.94C1877.32 -189.843 1829.93 -99.4313 1768.4 -42.7051C1738.4 -14.7549 1705.75 -3.47322 1674.67 20.0888C1639.3 46.9026 1601.13 62.8231 1561.78 73.2842C1534.84 80.4628 1507.29 84.9825 1479.59 88.3855C1424.99 95.0877 1369.73 97.7323 1316.51 95.1172C1285.39 93.5903 1255.08 90.7479 1225.74 86.938C1204.49 84.1783 1183.2 81.0779 1161.86 77.2118C1131.33 71.6823 1100.4 63.9716 1067.87 61.9463C1056.48 61.2379 1044.99 61.2971 1033.45 61.7234C984.334 63.2474 931.991 60.2641 887.366 73.7294C875.773 77.2296 864.69 81.7655 854.155 87.6556C812.958 110.69 775.506 150.048 743.651 200.803C738.188 209.481 732.837 218.552 727.539 227.878C708.644 261.164 690.408 297.698 670.195 331.132C658.157 351.067 645.787 371.713 630.516 383.579C621.023 390.966 610.705 394.313 599.291 393.38C587.917 392.448 577.109 388.727 565.667 385.202C526.449 372.867 479.455 370.456 445.383 402.393" stroke="#042870" stroke-width="0.552088" stroke-miterlimit="10"/>
<path d="M1904.24 -287.168C1876.31 -186.202 1829.72 -95.1272 1768.58 -38.6401C1738.1 -10.2024 1704.89 0.673042 1673.44 25.0657C1637.76 52.7489 1599.23 69.6622 1559.45 80.8395C1532.21 88.5084 1504.33 93.399 1476.28 96.9266C1420.98 103.871 1364.9 105.787 1310.79 101.496C1279.16 98.9843 1248.31 94.8369 1218.4 89.5139C1196.71 85.6495 1175 81.3245 1153.27 76.2026C1122.16 68.8738 1090.68 59.3304 1057.58 56.2104C1046 55.1182 1034.32 54.8876 1022.6 55.129C972.655 55.8762 919.786 54.9432 874.793 70.9242C863.125 75.0665 851.972 80.2776 841.367 86.8259C800.003 112.364 762.716 154.32 731.18 207.362C725.77 216.428 720.478 225.886 715.236 235.589C696.534 270.215 678.453 307.949 658.141 342.066C646.038 362.42 633.484 383.176 618.009 395.344C608.383 402.924 597.939 406.53 586.449 406.05C574.92 405.569 563.887 402.369 552.241 399.251C512.342 388.323 464.991 385.675 430.15 417.246" stroke="#042870" stroke-width="0.552088" stroke-miterlimit="10"/>
<path d="M1901.61 -284.401C1875.3 -182.568 1829.51 -90.8288 1768.74 -34.5804C1737.8 -5.66077 1704.01 4.81435 1672.21 30.0432C1636.22 58.5958 1597.32 76.5019 1557.11 88.3955C1529.57 96.5601 1501.37 101.816 1472.95 105.463C1416.95 112.65 1360.06 113.843 1305.06 107.865C1272.91 104.374 1241.52 98.9166 1211.05 92.0802C1188.91 87.1107 1166.79 81.5558 1144.67 75.1896C1112.97 66.0665 1080.94 54.6854 1047.26 50.4648C1035.5 48.9884 1023.64 48.4683 1011.74 48.5245C960.965 48.4945 907.568 49.6122 862.206 68.1143C850.461 72.9046 839.243 78.7846 828.565 85.9915C787.032 114.033 749.909 158.588 718.692 213.921C713.341 223.381 708.103 233.228 702.917 243.302C684.409 279.273 666.481 318.195 646.069 353.007C633.901 373.78 621.166 394.646 605.484 407.121C595.725 414.894 585.153 418.76 573.592 418.733C561.905 418.703 550.651 416.018 538.801 413.312C498.224 403.796 450.51 400.912 414.898 432.105" stroke="#042870" stroke-width="0.552088" stroke-miterlimit="10"/>
<path d="M1898.97 -281.637C1874.29 -178.929 1829.29 -86.5263 1768.92 -30.5228C1737.51 -1.11579 1703.15 8.9532 1670.99 35.0128C1634.68 64.4352 1595.42 83.3335 1554.78 95.9434C1526.94 104.598 1498.41 110.225 1469.64 113.997C1412.94 121.426 1355.23 121.891 1299.35 114.236C1266.68 109.76 1234.75 102.998 1203.71 94.6486C1181.13 88.5745 1158.59 81.7891 1136.08 74.1733C1103.79 63.2505 1071.23 50.0371 1036.97 44.7163C1025.01 42.8616 1012.97 42.0458 1000.89 41.9174C949.284 41.1107 895.356 44.2736 849.629 65.2965C837.81 70.729 826.521 77.284 815.778 85.1542C774.072 115.7 737.119 162.853 706.218 220.473C700.922 230.321 695.745 240.555 690.608 251.007C672.291 288.318 654.523 328.432 634.007 363.94C621.778 385.131 608.854 406.102 592.969 418.884C583.077 426.851 572.377 430.981 560.745 431.396C548.903 431.824 537.425 429.653 525.368 427.349C484.112 419.246 436.041 416.125 399.659 446.945" stroke="#042870" stroke-width="0.552088" stroke-miterlimit="10"/>
<path d="M1896.34 -278.864C1873.28 -175.288 1829.08 -82.221 1769.09 -26.4507C1737.21 3.43822 1702.28 13.101 1669.75 40.0022C1633.14 70.2885 1593.51 90.185 1552.45 103.517C1524.31 112.667 1495.45 118.66 1466.32 122.551C1408.92 130.222 1350.4 129.958 1293.63 120.628C1260.44 115.172 1227.96 107.095 1196.36 97.2381C1173.34 90.0589 1150.38 82.0434 1127.48 73.1777C1094.61 60.4548 1061.49 45.4098 1026.66 38.9884C1014.52 36.7495 1002.28 35.6443 990.026 35.3307C937.596 33.7468 883.135 38.9498 837.044 62.499C825.148 68.5795 813.788 75.804 802.978 84.3322C761.098 117.371 724.317 167.133 693.733 227.045C688.491 237.287 683.371 247.904 678.291 258.733C660.167 297.382 642.554 338.691 621.936 374.888C609.642 396.498 596.537 417.579 580.444 430.663C570.422 438.817 559.595 443.218 547.885 444.08C535.893 444.964 524.186 443.304 511.928 441.412C469.991 434.721 421.56 431.364 384.407 461.806" stroke="#042870" stroke-width="0.552088" stroke-miterlimit="10"/>
<path d="M1893.7 -276.097C1872.26 -171.653 1828.86 -77.9171 1769.26 -22.3914C1736.92 7.98456 1701.41 17.2415 1668.52 44.9735C1631.59 76.1241 1591.61 97.018 1550.11 111.066C1521.68 120.707 1492.49 127.066 1463 131.087C1404.9 139 1345.56 138.013 1287.91 126.996C1254.2 120.556 1221.18 111.167 1189.01 99.8031C1165.55 91.5134 1142.18 82.2735 1118.88 72.1634C1085.43 57.6408 1051.77 40.7691 1016.35 33.2416C1004.03 30.6244 991.606 29.2293 979.17 28.7308C925.91 26.3702 870.918 33.6074 824.467 59.688C812.493 66.411 801.064 74.3048 790.186 83.4966C748.128 119.029 711.523 171.4 681.257 233.603C676.074 244.233 671.008 255.238 665.985 266.444C648.054 306.433 630.594 348.935 609.877 385.828C597.517 407.857 584.228 429.048 567.931 442.433C557.776 450.78 546.825 455.451 535.04 456.756C522.895 458.102 510.962 456.951 498.499 455.461C455.885 450.182 407.09 446.583 369.171 476.658" stroke="#042870" stroke-width="0.552088" stroke-miterlimit="10"/>
<path d="M1891.07 -273.332C1871.25 -168.013 1828.65 -73.6194 1769.43 -18.3324C1736.62 12.5255 1700.49 21.259 1667.3 49.9444C1630.01 81.831 1589.7 103.846 1547.78 118.616C1519.05 128.752 1489.53 135.476 1459.68 139.617C1400.89 147.771 1340.73 146.056 1282.18 133.363C1247.96 125.944 1214.4 115.239 1181.67 102.368C1157.76 92.9676 1133.97 82.5031 1110.29 71.1431C1076.25 54.8205 1042.04 36.2393 1006.05 27.4891C993.535 24.5269 980.931 22.8028 968.316 22.1194C914.229 18.9817 858.701 28.2593 811.889 56.8713C799.837 64.2368 788.341 72.8053 777.394 82.6554C735.158 120.682 698.725 175.661 668.778 240.151C663.649 251.169 658.645 262.567 653.671 274.145C635.934 315.473 618.632 359.174 597.809 396.757C585.386 419.204 571.914 440.5 555.41 454.193C545.123 462.733 534.048 467.674 522.188 469.421C509.889 471.229 497.731 470.588 485.062 469.505C441.768 465.638 392.616 461.803 353.924 491.506" stroke="#042870" stroke-width="0.552088" stroke-miterlimit="10"/>
<path d="M1888.43 -270.56C1870.24 -164.373 1828.44 -69.3153 1769.6 -14.2673C1736.33 17.078 1699.63 25.4162 1666.07 54.9268C1628.47 87.6883 1587.79 110.69 1545.45 126.177C1516.42 136.803 1486.58 143.898 1456.37 148.164C1396.87 156.56 1335.9 154.123 1276.47 139.748C1241.72 131.343 1207.63 119.328 1174.32 104.95C1149.98 94.4388 1125.78 82.6766 1101.7 70.1401C1067.09 51.9161 1032.31 31.5937 995.751 21.7536C983.048 18.4071 970.256 16.3936 957.461 15.5253C902.545 11.6108 846.482 22.923 799.31 54.0664C787.181 62.0744 775.613 71.3125 764.604 81.8311C722.187 122.346 685.933 179.939 656.303 246.721C651.229 258.132 646.281 269.913 641.364 281.868C623.82 324.536 606.672 369.431 585.748 407.703C573.26 430.569 559.607 451.974 542.896 465.969C532.475 474.702 521.277 479.913 509.338 482.097C496.889 484.373 484.501 484.23 471.628 483.56C427.657 481.105 378.141 477.029 338.679 506.36" stroke="#042870" stroke-width="0.552088" stroke-miterlimit="10"/>
<path d="M1885.8 -267.794C1869.23 -160.738 1828.23 -65.0116 1769.78 -10.2027C1736.04 21.6245 1698.76 29.5675 1664.84 59.9034C1626.93 93.5453 1585.89 117.529 1543.12 133.737C1513.79 144.858 1483.62 152.32 1453.05 156.705C1392.85 165.344 1331.07 162.177 1270.75 146.127C1235.48 136.743 1200.85 123.406 1166.98 107.526C1142.19 95.9044 1117.58 82.9234 1093.1 69.1374C1057.9 49.1192 1022.58 26.9534 985.444 16.0186C972.551 12.2884 959.574 9.98504 946.602 8.93152C890.86 4.23985 834.256 17.5819 786.727 51.2618C774.52 59.9123 762.881 69.82 751.807 81.002C709.205 124.005 673.133 184.212 643.818 253.28C638.802 265.08 633.91 277.249 629.049 289.581C611.698 333.588 594.704 379.676 573.683 418.644C561.129 441.928 547.293 463.444 530.377 477.74C519.824 486.666 508.502 492.153 496.487 494.773C483.89 497.522 471.271 497.879 458.193 497.61C413.541 496.568 363.669 492.254 323.436 521.213" stroke="#042870" stroke-width="0.552088" stroke-miterlimit="10"/>
<path d="M1883.16 -265.028C1868.22 -157.099 1828.01 -60.7136 1769.95 -6.14344C1735.74 26.1712 1697.89 33.7135 1663.61 64.8801C1625.39 99.3969 1583.98 124.368 1540.78 141.292C1511.16 152.909 1480.66 160.737 1449.74 165.246C1388.83 174.127 1326.23 170.232 1265.03 152.5C1229.24 142.131 1194.08 127.484 1159.63 110.096C1134.4 97.3641 1109.37 83.1693 1084.51 68.1225C1048.73 46.3151 1012.86 22.3014 975.146 10.2766C962.067 6.16216 948.901 3.56936 935.75 2.33094C879.178 -3.13749 822.037 12.2395 774.154 48.4501C761.866 57.7436 750.159 68.3204 739.018 80.1657C696.232 125.653 660.342 188.478 631.344 259.838C626.383 272.032 621.551 284.583 616.743 297.292C599.586 342.644 582.749 389.92 561.624 429.583C549.006 453.287 534.987 474.906 517.864 489.51C507.181 498.623 495.737 504.396 483.643 507.448C470.896 510.665 458.048 511.52 444.765 511.664C399.433 512.034 349.2 507.484 308.197 536.065" stroke="#042870" stroke-width="0.552088" stroke-miterlimit="10"/>
<path d="M1880.52 -262.256C1867.21 -153.458 1827.8 -56.4039 1770.12 -2.07827C1735.44 30.7183 1697.02 37.8655 1662.38 69.8572C1623.86 105.249 1582.08 131.207 1538.45 148.848C1508.52 160.955 1477.7 169.154 1446.41 173.788C1384.81 182.905 1321.39 178.293 1259.3 158.88C1223 147.531 1187.3 131.472 1152.28 112.679C1126.62 98.7681 1101.17 83.4222 1075.9 67.1203C1039.54 43.5242 1003.13 17.6563 964.836 4.54228C951.567 0.0440733 938.219 -2.83895 924.888 -4.26226C867.49 -10.5078 809.754 6.74399 761.568 45.6515C749.188 55.5448 737.424 66.834 726.218 79.3427C683.244 127.319 647.536 192.757 618.86 266.404C613.954 278.985 609.18 291.93 604.425 305.011C587.461 351.702 570.778 400.172 549.551 440.525C536.868 464.641 522.666 486.377 505.339 501.282C494.522 510.589 482.958 516.636 470.782 520.126C457.89 523.82 444.808 525.17 431.32 525.721C385.311 527.503 334.718 522.711 292.946 550.925" stroke="#042870" stroke-width="0.552088" stroke-miterlimit="10"/>
<path d="M1877.89 -259.489C1866.2 -149.823 1827.59 -52.1049 1770.29 1.98165C1735.15 35.2653 1696.15 42.0176 1661.15 74.8345C1622.32 111.101 1580.17 138.041 1536.11 156.404C1505.89 169.007 1474.74 177.571 1443.1 182.324C1380.79 191.684 1316.56 186.344 1253.58 165.254C1216.76 152.921 1180.53 135.567 1144.93 115.251C1118.83 100.24 1092.96 83.664 1067.31 66.1122C1030.37 40.727 993.398 13.0111 954.532 -1.19803C941.075 -6.08589 927.54 -9.25291 914.032 -10.8615C855.804 -17.8838 797.537 1.42999 748.988 42.8415C736.531 53.3883 724.678 65.2992 713.427 78.5078C670.191 128.809 634.743 197.024 606.383 272.963C601.535 285.938 596.815 299.265 592.115 312.718C575.345 360.748 558.82 410.417 537.489 451.46C524.74 475.995 510.357 497.841 492.822 513.047C481.873 522.548 470.19 528.876 457.934 532.791C444.896 536.959 431.58 538.801 417.89 539.759C371.201 542.953 320.247 537.926 277.705 565.767" stroke="#042870" stroke-width="0.552088" stroke-miterlimit="10"/>
<path d="M1875.25 -256.722C1865.19 -146.182 1827.37 -47.8053 1770.46 6.04215C1734.85 39.8077 1695.28 46.1647 1659.92 79.8073C1620.78 116.954 1578.27 144.875 1533.78 163.955C1503.26 177.048 1471.78 185.978 1439.78 190.861C1376.77 200.463 1311.73 194.394 1247.86 171.623C1210.52 158.31 1173.75 139.657 1137.59 117.817C1111.05 101.712 1084.76 83.9063 1058.71 65.0937C1021.19 37.9197 983.671 8.35499 944.23 -6.94922C930.583 -12.2209 916.862 -15.6777 903.175 -17.4711C844.121 -25.2706 785.321 -3.88892 736.407 40.0211C723.873 51.2159 711.949 63.8018 700.632 77.6683C657.227 130.507 621.945 201.281 593.901 279.512C589.108 292.876 584.448 306.59 579.802 320.42C563.226 369.79 546.854 420.653 525.422 462.391C512.609 487.345 498.041 509.295 480.303 524.808C469.221 534.502 457.421 541.11 445.082 545.458C431.899 550.103 418.349 552.44 404.455 553.804C357.088 558.405 305.775 553.147 262.462 580.61" stroke="#042870" stroke-width="0.552088" stroke-miterlimit="10"/>
<path d="M1872.62 -253.951C1864.18 -142.543 1827.16 -43.4972 1770.63 10.1115C1734.56 44.3645 1694.42 50.3209 1658.69 84.7886C1619.24 122.81 1576.36 151.719 1531.44 171.52C1500.63 185.109 1468.82 194.405 1436.46 199.407C1372.75 209.251 1306.9 202.459 1242.14 178.007C1204.28 163.709 1166.97 143.762 1130.24 120.398C1103.26 103.194 1076.55 84.158 1050.11 64.0903C1012.01 35.1272 973.936 3.70903 933.92 -12.6848C920.087 -18.3406 906.181 -22.0818 892.314 -24.0656C832.43 -32.6419 773.099 -9.19269 723.822 37.2213C711.212 49.0695 699.22 62.3302 687.832 76.844C644.255 132.22 609.143 205.559 581.416 286.082C576.677 299.834 572.075 313.936 567.485 328.143C551.102 378.852 534.884 430.909 513.351 473.336C500.474 498.709 485.724 520.769 467.778 536.585C456.564 546.471 444.656 553.403 432.223 558.139C418.903 563.306 405.111 566.088 391.012 567.865C342.964 573.878 291.291 568.383 247.208 595.474" stroke="#042870" stroke-width="0.552088" stroke-miterlimit="10"/>
<path d="M1869.98 -251.185C1863.17 -138.908 1826.95 -39.1986 1770.8 14.1711C1734.26 48.9061 1693.55 54.4668 1657.47 89.7656C1617.7 128.662 1574.46 158.558 1529.11 179.075C1436.75 220.871 1335.41 223.788 1236.41 184.38C1169.82 157.871 1104.85 113.409 1041.52 63.0761C1002.83 32.3242 964.213 -0.942739 923.621 -18.4316C848.996 -50.582 772.375 -25.8205 711.247 34.4047C650.12 94.63 603.528 188.134 568.943 292.635C537.556 387.463 512.261 497.732 455.268 548.349C390.087 606.236 302.221 568.467 231.974 610.316" stroke="#042870" stroke-width="0.552088" stroke-miterlimit="10"/>
</g>
<defs>
<clipPath id="clip0_694_2777">
<rect width="2226.37" height="743.862" fill="white" transform="translate(-260 -81.6953) rotate(-6.58474)"/>
</clipPath>
</defs>
</svg>
