<svg width="1440" height="457" viewBox="0 0 1440 457" fill="none" xmlns="http://www.w3.org/2000/svg">
<g clip-path="url(#clip0_1048_3160)">
<path d="M1810.69 -153.999C1753.5 -68.6981 1692.56 10.4238 1624.49 71.2288C1602.41 90.9438 1579.46 108.799 1554.56 118.476C1503.79 138.208 1448.24 122.957 1394.98 126.198C1327.35 130.31 1262.92 165.529 1209.63 226.177C1169.54 271.815 1125.95 336.329 1077.01 356.905C1032.56 375.598 974.663 308.499 930.646 284.792C885.561 260.513 838.176 259.703 795.837 279.757C773.657 290.265 752.777 306.502 734.298 328.164C716.628 348.883 703.341 385.179 676.757 360.927C667.97 352.91 661.021 339.796 653.058 329.339C625.383 293.003 584.51 294.631 563.532 332.91" stroke="#042870" stroke-width="0.552088" stroke-miterlimit="10"/>
<path d="M1808.05 -151.227C1752.49 -65.0578 1692.35 14.7279 1624.66 75.2938C1602.12 95.4903 1578.59 112.951 1553.33 123.458C1522.85 136.064 1490.62 136.416 1458.12 135.377C1435.94 134.67 1413.63 133.31 1391.67 134.745C1348.29 137.585 1306.07 151.84 1267.05 176.101C1244.23 190.289 1222.52 207.907 1202.29 228.759C1188.07 243.344 1173.46 260.024 1158.39 276.364C1137.19 299.285 1115.06 321.513 1091.73 336.805C1083.36 342.312 1074.84 346.925 1066.16 350.311C1030.29 364.266 986.374 327.771 947.647 301.664C937.26 294.626 927.248 288.335 917.854 283.962C879.222 265.785 839.256 264.719 802.322 278.841C795.963 281.271 789.691 284.151 783.525 287.475C761.538 299.322 740.816 316.752 722.232 339.105C711.227 352.346 701.784 371.254 689.805 378.266C682.429 382.586 674.121 382.328 663.906 373.603C654.98 365.98 647.791 353.439 639.623 343.394C611.268 308.471 570.038 309.862 548.286 347.769" stroke="#042870" stroke-width="0.552088" stroke-miterlimit="10"/>
<path d="M1805.41 -148.462C1751.48 -61.4183 1692.13 19.0257 1624.83 79.3529C1601.82 100.037 1577.72 117.102 1552.1 128.429C1521.31 141.91 1488.71 143.25 1455.78 142.926C1433.3 142.709 1410.67 141.715 1388.35 143.28C1344.26 146.357 1301.23 159.889 1261.32 182.475C1237.99 195.677 1215.74 212.001 1194.94 231.33C1180.28 244.82 1165.26 260.271 1149.79 275.35C1128.01 296.482 1105.33 316.862 1081.42 331.064C1072.86 336.188 1064.15 340.51 1055.3 343.712C1018.6 356.89 974.148 322.462 935.061 298.859C924.598 292.475 914.514 286.903 905.054 283.138C866.239 267.689 826.453 268.997 789.836 285.406C783.534 288.223 777.32 291.497 771.207 295.193C749.41 308.379 728.845 327.003 710.161 350.051C699.091 363.711 689.464 382.729 677.28 390.043C669.771 394.55 661.347 394.489 651.049 386.285C641.979 379.057 634.555 367.093 626.183 357.455C597.15 323.943 555.557 325.099 533.038 362.628" stroke="#042870" stroke-width="0.552088" stroke-miterlimit="10"/>
<path d="M1802.78 -145.695C1750.47 -57.7828 1691.92 23.3305 1625 83.4128C1601.53 104.579 1576.85 121.249 1550.87 133.406C1519.77 147.767 1486.8 150.089 1453.45 150.482C1430.67 150.761 1407.71 150.132 1385.03 151.817C1340.25 155.136 1296.4 167.939 1255.6 188.843C1231.75 201.066 1209 216.197 1187.59 233.896C1172.52 246.362 1157.05 260.507 1141.2 274.33C1118.83 293.674 1095.6 312.206 1071.12 325.313C1062.37 330.052 1053.48 334.085 1044.45 337.107C1006.92 349.508 961.919 317.317 922.486 296.043C911.942 290.352 901.794 285.432 892.265 282.297C853.281 269.469 813.659 273.259 777.364 291.96C771.117 295.17 764.961 298.827 758.904 302.899C737.3 317.425 716.893 337.243 698.108 360.985C686.973 375.064 677.164 394.192 664.773 401.808C657.131 406.508 648.592 406.649 638.207 398.95C628.992 392.122 621.333 380.724 612.755 371.494C583.043 339.394 541.092 340.308 517.801 377.47" stroke="#042870" stroke-width="0.552088" stroke-miterlimit="10"/>
<path d="M1800.14 -142.922C1749.46 -54.1418 1691.7 27.6353 1625.17 87.484C1601.24 109.137 1576.01 125.499 1549.65 138.389C1518.26 153.733 1484.9 156.934 1451.12 158.049C1428.05 158.818 1404.76 158.561 1381.72 160.369C1336.23 163.931 1291.57 176.011 1249.89 195.234C1225.52 206.472 1202.23 220.342 1180.25 236.484C1164.74 247.877 1148.85 260.766 1132.61 273.339C1109.66 290.894 1085.88 307.577 1060.82 319.589C1051.88 323.944 1042.8 327.688 1033.59 330.524C995.24 342.148 949.705 312.075 909.909 293.249C899.286 288.223 889.075 283.984 879.477 281.479C840.329 271.271 800.868 277.543 764.889 298.53C758.696 302.129 752.597 306.173 746.597 310.623C725.187 326.488 704.933 347.499 686.047 371.932C674.848 386.429 664.857 405.661 652.259 413.585C644.485 418.478 635.826 418.822 625.361 411.632C615.998 405.205 608.109 394.378 599.326 385.555C568.933 354.868 526.622 355.545 502.563 392.329" stroke="#042870" stroke-width="0.552088" stroke-miterlimit="10"/>
<path d="M1797.51 -140.157C1748.45 -50.5026 1691.49 31.9382 1625.34 91.5428C1600.94 113.678 1575.15 129.666 1548.42 143.36C1516.73 159.601 1483 163.767 1448.79 165.598C1425.41 166.862 1401.8 166.971 1378.4 168.899C1332.21 172.702 1286.73 184.054 1244.16 201.601C1219.27 211.86 1195.46 224.457 1172.9 239.048C1156.96 249.364 1140.67 261.076 1124.01 272.319C1100.51 288.187 1076.13 302.811 1050.52 313.836C1041.38 317.77 1032.13 321.261 1022.73 323.913C983.552 334.76 937.49 306.799 897.328 290.433C886.63 286.071 876.348 282.512 866.681 280.638C827.372 273.032 788.07 281.804 752.407 305.083C746.273 309.076 740.231 313.502 734.281 318.33C713.065 335.539 692.965 357.745 673.977 382.867C662.713 397.783 652.538 417.125 639.736 425.35C631.828 430.436 623.051 430.983 612.506 424.303C602.996 418.276 594.875 408.02 585.887 399.604C554.817 370.329 512.146 370.77 487.314 407.182" stroke="#042870" stroke-width="0.552088" stroke-miterlimit="10"/>
<path d="M1794.87 -137.384C1747.44 -46.8617 1691.28 36.243 1625.52 95.6085C1600.65 118.231 1574.28 133.834 1547.19 148.343C1515.2 165.48 1481.09 170.606 1446.46 173.16C1422.78 174.914 1398.84 175.394 1375.09 177.447C1328.2 181.492 1281.9 192.121 1238.44 207.981C1213.04 217.255 1188.68 228.586 1165.56 241.625C1149.18 250.863 1132.47 261.334 1115.42 271.311C1091.33 285.406 1066.4 298.149 1040.22 308.096C1030.89 311.64 1021.45 314.853 1011.88 317.313C971.873 327.384 925.282 301.534 884.751 287.623C873.978 283.926 863.632 281.041 853.89 279.809C814.422 274.806 775.276 286.077 739.929 311.643C733.85 316.024 727.865 320.838 721.971 326.037C700.948 344.586 681.006 367.985 661.914 393.802C650.585 409.137 640.229 428.589 627.22 437.116C619.182 442.395 610.277 443.151 599.655 436.974C589.994 431.354 581.644 421.658 572.454 413.649C540.704 385.786 497.672 385.985 472.074 422.03" stroke="#042870" stroke-width="0.552088" stroke-miterlimit="10"/>
<path d="M1792.24 -134.618C1746.42 -43.2273 1691.06 40.5409 1625.68 99.6676C1600.35 122.772 1573.41 137.991 1545.96 153.314C1513.66 171.342 1479.18 177.439 1444.12 180.709C1420.15 182.959 1395.88 183.805 1371.76 185.977C1324.18 190.264 1277.07 200.165 1232.72 214.348C1206.8 222.643 1181.9 232.702 1158.21 244.19C1141.39 252.351 1124.26 261.581 1106.82 270.297C1082.15 282.614 1056.66 293.481 1029.91 302.349C1020.4 305.504 1010.77 308.432 1001.02 310.708C960.181 320.002 913.067 296.258 872.167 284.807C861.318 281.768 850.905 279.564 841.091 278.968C801.467 276.556 762.472 290.339 727.444 318.196C721.419 322.965 715.494 328.173 709.655 333.743C688.826 353.632 669.037 378.224 649.844 404.732C638.45 420.485 627.91 440.048 614.696 448.876C606.526 454.343 597.497 455.318 586.799 449.634C576.985 444.42 568.409 435.29 559.014 427.688C526.586 401.231 483.195 401.199 456.823 436.866" stroke="#042870" stroke-width="0.552088" stroke-miterlimit="10"/>
<path d="M1789.6 -131.854C1745.42 -39.5886 1690.85 44.8433 1625.86 103.731C1600.06 127.323 1572.55 142.151 1544.73 158.295C1512.13 177.209 1477.28 184.282 1441.79 188.274C1417.52 191.014 1392.92 192.231 1368.45 194.528C1320.16 199.057 1272.24 208.229 1227 220.737C1200.56 228.047 1175.13 236.829 1150.87 246.776C1133.6 253.854 1116.06 261.848 1098.23 269.298C1072.97 279.843 1046.94 288.833 1019.61 296.618C1009.91 299.383 1000.1 302.027 990.168 304.118C948.503 312.634 900.866 290.99 859.592 282.005C848.667 279.626 838.19 278.101 828.304 278.142C788.523 278.31 749.683 294.615 714.975 324.764C709.008 329.927 703.14 335.517 697.351 341.465C676.715 362.693 657.08 388.479 637.787 415.681C626.328 431.854 615.606 451.52 602.185 460.656C593.882 466.316 584.727 467.511 573.956 462.319C563.99 457.518 555.187 448.941 545.588 441.752C512.479 416.708 468.728 416.44 441.589 451.734" stroke="#042870" stroke-width="0.552088" stroke-miterlimit="10"/>
<path d="M1786.97 -129.081C1744.41 -35.9475 1690.64 49.1483 1626.03 107.797C1599.76 131.871 1571.69 146.315 1543.5 163.274C1510.59 183.073 1475.37 191.123 1439.45 195.831C1414.89 199.066 1389.96 200.644 1365.13 203.065C1316.14 207.836 1267.4 216.286 1221.28 227.106C1194.32 233.436 1168.35 240.941 1143.52 249.348C1125.81 255.344 1107.85 262.102 1089.63 268.285C1063.79 277.052 1037.21 284.172 1009.3 290.873C999.414 293.248 989.415 295.608 979.305 297.515C936.811 305.254 888.649 285.705 847.005 279.197C836.008 277.476 825.46 276.626 815.503 277.309C775.57 280.051 736.879 298.884 702.487 331.32C696.575 336.87 690.764 342.849 685.032 349.173C664.589 371.74 645.112 398.725 625.714 426.618C614.194 443.209 603.284 462.986 589.659 472.423C581.223 478.276 571.942 479.692 561.095 474.992C550.973 470.603 541.947 462.586 532.142 455.798C498.357 432.166 454.241 431.657 426.333 466.579" stroke="#042870" stroke-width="0.552088" stroke-miterlimit="10"/>
<path d="M1784.33 -126.315C1743.4 -32.3131 1690.43 53.4519 1626.2 111.856C1599.46 136.417 1570.83 150.471 1542.27 168.25C1509.06 188.935 1473.47 197.961 1437.12 203.386C1412.25 207.112 1387 209.06 1361.81 211.606C1312.12 216.62 1262.56 224.341 1215.56 233.485C1188.07 238.831 1161.57 245.053 1136.17 251.925C1118.02 256.832 1099.65 262.36 1081.03 267.282C1054.61 274.267 1027.48 279.521 998.999 285.143C988.924 287.129 978.737 289.205 968.45 290.926C925.13 297.888 876.447 280.428 834.426 276.397C823.354 275.336 812.742 275.16 802.71 276.485C762.623 281.79 724.084 303.162 690.008 337.89C684.151 343.834 678.397 350.195 672.721 356.897C652.472 380.803 633.149 408.982 613.653 437.564C602.068 454.573 590.977 474.46 577.144 484.199C568.575 490.245 559.168 491.887 548.249 487.673C537.971 483.702 528.715 476.268 518.712 469.859C484.227 447.758 439.774 446.893 411.092 481.443" stroke="#042870" stroke-width="0.552088" stroke-miterlimit="10"/>
<path d="M1781.69 -123.548C1742.38 -28.6725 1690.21 57.7509 1626.37 115.916C1599.17 140.959 1569.96 154.623 1541.04 173.222C1507.52 194.786 1471.56 204.795 1434.78 210.936C1409.62 215.157 1384.04 217.471 1358.49 220.137C1308.1 225.392 1257.73 232.385 1209.84 239.853C1181.83 244.22 1154.78 249.154 1128.82 254.49C1110.23 258.309 1091.44 262.601 1072.44 266.262C1045.43 271.464 1017.76 274.858 988.696 279.391C978.431 280.993 968.062 282.779 957.593 284.315C913.443 290.501 864.238 275.123 821.844 273.576C810.698 273.167 800.019 273.667 789.914 275.644C749.673 283.502 711.283 307.424 677.525 344.438C671.726 350.771 666.03 357.525 660.407 364.598C640.351 389.844 621.182 419.216 601.585 448.494C589.936 465.922 578.66 485.914 564.624 495.959C555.925 502.198 546.387 504.072 535.396 500.333C524.96 496.786 515.483 489.9 505.274 483.892C470.112 463.203 425.296 462.102 395.847 496.279" stroke="#042870" stroke-width="0.552088" stroke-miterlimit="10"/>
<path d="M1779.06 -120.777C1741.37 -25.0326 1690 62.06 1626.54 119.986C1598.87 145.516 1569.09 158.785 1539.81 178.21C1505.99 200.654 1469.66 211.639 1432.45 218.502C1406.99 223.214 1381.08 225.899 1355.18 228.689C1304.08 234.187 1252.9 240.457 1204.11 246.243C1175.59 249.625 1148 253.277 1121.48 257.078C1102.44 259.808 1083.23 262.865 1063.84 265.265C1036.24 268.684 1008.03 270.218 978.39 273.661C967.938 274.873 957.381 276.375 946.736 277.732C901.759 283.141 852.032 269.841 809.267 270.787C798.048 271.032 787.301 272.206 777.125 274.831C736.729 285.235 698.492 311.712 665.05 351.018C659.306 357.745 653.668 364.881 648.098 372.332C628.236 398.923 609.223 429.483 589.523 459.456C577.808 477.303 566.351 497.404 552.107 507.752C543.276 514.179 533.606 516.29 522.545 513.032C511.955 509.914 502.253 503.57 491.839 497.969C456.001 478.698 410.823 477.35 380.601 511.155" stroke="#042870" stroke-width="0.552088" stroke-miterlimit="10"/>
<path d="M1776.42 -118.011C1740.36 -21.399 1689.7 66.1282 1626.72 124.045C1598.54 149.955 1568.23 162.93 1538.59 183.18C1504.45 206.5 1467.75 218.472 1430.12 226.056C1404.36 231.263 1378.12 234.315 1351.86 237.224C1300.07 242.963 1248.07 248.505 1198.4 252.61C1169.36 255.012 1141.22 257.365 1114.13 259.642C1094.66 261.279 1075.03 263.099 1055.25 264.249C1027.07 265.885 998.308 265.559 968.091 267.914C957.452 268.741 946.707 269.954 935.882 271.126C890.076 275.758 839.828 264.53 796.689 267.97C785.397 268.868 774.582 270.716 764.333 273.989C723.781 286.934 685.697 315.973 652.574 357.565C646.885 364.68 641.304 372.204 635.791 380.032C616.122 407.962 597.263 439.716 577.461 470.379C565.682 488.644 554.041 508.856 539.593 519.505C530.628 526.125 520.831 528.473 509.698 525.69C498.951 523.001 489.028 517.2 478.412 512.006C441.897 494.152 396.355 492.563 365.367 525.995" stroke="#042870" stroke-width="0.552088" stroke-miterlimit="10"/>
<path d="M1773.79 -115.244C1739.35 -17.758 1689.49 70.4276 1626.89 128.105C1598.24 154.498 1567.36 167.077 1537.36 188.152C1502.91 212.347 1465.85 225.306 1427.78 233.607C1401.73 239.305 1375.16 242.727 1348.54 245.761C1296.04 251.737 1243.23 256.561 1192.67 258.985C1163.11 260.402 1134.43 261.462 1106.78 262.214C1086.86 262.752 1066.82 263.348 1046.65 263.237C1017.88 263.084 988.576 260.909 957.78 262.169C946.952 262.613 936.025 263.541 925.02 264.522C878.387 268.377 827.616 259.221 784.103 265.156C772.734 266.707 761.855 269.23 751.532 273.15C710.819 288.626 672.893 320.236 640.087 364.12C634.455 371.623 628.932 379.535 623.472 387.741C603.997 417.009 585.293 449.963 565.389 481.315C553.545 499.994 541.722 520.316 527.067 531.272C517.97 538.085 508.042 540.676 496.841 538.362C485.935 536.109 475.794 530.838 464.97 526.052C427.779 509.61 381.876 507.784 350.114 540.839" stroke="#042870" stroke-width="0.552088" stroke-miterlimit="10"/>
<path d="M1771.15 -112.474C1738.34 -14.1189 1689.28 74.7356 1627.06 132.169C1597.95 159.043 1566.49 171.228 1536.13 193.133C1501.38 218.203 1463.94 232.149 1425.45 241.166C1399.1 247.36 1372.21 251.147 1345.23 254.301C1292.03 260.519 1238.4 264.615 1186.95 265.363C1156.88 265.8 1127.65 265.561 1099.44 264.789C1079.08 264.233 1058.62 263.593 1038.05 262.227C1008.7 260.28 978.853 256.262 947.482 256.426C936.468 256.486 925.352 257.125 914.17 257.921C866.708 260.999 815.416 253.904 771.529 262.343C760.086 264.542 749.14 267.74 738.744 272.319C697.874 290.319 660.1 324.507 627.613 370.683C622.037 378.58 616.571 386.88 611.167 395.457C591.885 426.065 573.338 460.212 553.331 492.26C541.422 511.357 529.418 531.789 514.555 543.047C505.325 550.053 495.268 552.892 483.994 551.043C472.931 549.224 462.569 544.49 451.539 540.112C413.671 525.082 367.405 523.014 334.876 555.702" stroke="#042870" stroke-width="0.552088" stroke-miterlimit="10"/>
<path d="M1768.52 -109.706C1737.33 -10.4829 1689.15 79.2645 1627.23 136.23C1597.69 163.698 1565.62 175.375 1534.9 198.106C1499.83 224.051 1462.04 238.984 1423.11 248.718C1396.47 255.401 1369.25 259.554 1341.9 262.838C1288.01 269.299 1233.56 272.666 1181.23 271.732C1150.63 271.185 1120.87 269.647 1092.09 267.356C1071.28 265.695 1050.41 263.831 1029.45 261.214C999.514 257.479 969.123 251.612 937.173 250.682C925.972 250.357 914.668 250.706 903.306 251.318C855.018 253.618 803.201 248.585 758.942 259.535C747.426 262.387 736.408 266.254 725.945 271.485C684.913 292.005 647.299 328.776 615.128 377.239C609.609 385.523 604.198 394.211 598.847 403.165C579.758 435.113 561.365 470.453 541.257 503.191C529.283 522.708 517.095 543.249 502.031 554.808C492.671 562.002 482.481 565.096 471.138 563.704C459.918 562.326 449.335 558.085 438.099 554.152C399.557 540.406 352.927 538.23 319.624 570.54" stroke="#042870" stroke-width="0.552088" stroke-miterlimit="10"/>
<path d="M1765.88 -106.94C1736.32 -6.84266 1688.93 83.5687 1627.4 140.295C1597.4 168.245 1564.75 179.527 1533.67 203.089C1498.3 229.903 1460.13 245.823 1420.78 256.284C1393.84 263.463 1366.29 267.982 1338.59 271.385C1283.99 278.088 1228.73 280.732 1175.51 278.117C1144.39 276.59 1114.08 273.748 1084.74 269.938C1063.49 267.178 1042.2 264.078 1020.86 260.212C990.332 254.682 959.396 246.972 926.87 244.946C915.482 244.238 903.993 244.297 892.452 244.723C843.334 246.247 790.991 243.264 746.366 256.729C734.773 260.23 723.69 264.766 713.155 270.656C671.958 293.69 634.506 333.048 602.651 383.803C597.188 392.481 591.837 401.552 586.539 410.878C567.644 444.164 549.408 480.698 529.195 514.132C517.157 534.067 504.787 554.713 489.516 566.579C480.023 573.966 469.705 577.313 458.291 576.38C446.917 575.448 436.109 571.727 424.667 568.202C385.449 555.867 338.455 553.456 304.383 585.393" stroke="#042870" stroke-width="0.552088" stroke-miterlimit="10"/>
<path d="M1763.24 -104.169C1735.31 -3.20327 1688.72 87.8718 1627.58 144.359C1597.1 172.797 1563.89 183.672 1532.44 208.065C1496.76 235.748 1458.23 252.661 1418.45 263.839C1391.21 271.507 1363.33 276.398 1335.28 279.926C1279.98 286.87 1223.9 288.786 1169.79 284.495C1138.16 281.983 1107.31 277.836 1077.4 272.513C1055.71 268.649 1034 264.323 1012.27 259.202C981.157 251.873 949.68 242.329 916.575 239.209C904.998 238.117 893.323 237.887 881.603 238.128C831.655 238.875 778.786 237.942 733.793 253.923C722.125 258.065 710.972 263.277 700.367 269.825C659.003 295.363 621.716 337.319 590.18 390.361C584.77 399.427 579.478 408.886 574.236 418.588C555.534 453.214 537.453 490.948 517.141 525.065C505.038 545.419 492.484 566.175 477.009 578.343C467.383 585.923 456.939 589.529 445.449 589.049C433.92 588.568 422.887 585.368 411.241 582.25C371.342 571.322 323.991 568.674 289.15 600.245" stroke="#042870" stroke-width="0.552088" stroke-miterlimit="10"/>
<path d="M1760.61 -101.401C1734.3 0.432347 1688.51 92.1712 1627.74 148.42C1596.8 177.339 1563.01 187.814 1531.21 213.043C1495.22 241.596 1456.32 259.502 1416.11 271.396C1388.57 279.56 1360.37 284.816 1331.95 288.463C1275.95 295.65 1219.06 296.843 1164.06 290.865C1131.91 287.374 1100.52 281.917 1070.05 275.08C1047.91 270.111 1025.79 264.556 1003.67 258.19C971.966 249.067 939.944 237.685 906.264 233.465C894.5 231.988 882.636 231.468 870.739 231.524C819.965 231.495 766.568 232.612 721.206 251.114C709.461 255.905 698.243 261.785 687.565 268.991C646.032 297.033 608.909 341.588 577.692 396.921C572.341 406.381 567.103 416.228 561.917 426.302C543.409 462.273 525.481 501.195 505.069 536.007C492.901 556.78 480.166 577.646 464.484 590.121C454.725 597.894 444.153 601.76 432.592 601.733C420.905 601.703 409.651 599.018 397.801 596.312C357.224 586.796 309.51 583.912 273.898 615.105" stroke="#042870" stroke-width="0.552088" stroke-miterlimit="10"/>
<path d="M1757.97 -98.6368C1733.29 4.071 1688.29 96.4737 1627.92 152.477C1596.51 181.884 1562.15 191.953 1529.99 218.013C1493.68 247.435 1454.42 266.333 1413.78 278.943C1385.94 287.598 1357.41 293.225 1328.64 296.997C1271.94 304.426 1214.23 304.891 1158.35 297.236C1125.68 292.76 1093.75 285.998 1062.71 277.649C1040.13 271.574 1017.59 264.789 995.079 257.173C962.793 246.251 930.226 233.037 895.966 227.716C884.013 225.862 871.967 225.046 859.887 224.917C808.284 224.111 754.356 227.274 708.629 248.297C696.81 253.729 685.521 260.284 674.778 268.154C633.072 298.7 596.119 345.853 565.218 403.473C559.922 413.321 554.745 423.555 549.608 434.007C531.291 471.318 513.523 511.432 493.007 546.94C480.778 568.131 467.854 589.102 451.969 601.884C442.077 609.851 431.377 613.981 419.745 614.396C407.903 614.824 396.425 612.653 384.368 610.349C343.112 602.246 295.041 599.125 258.659 629.945" stroke="#042870" stroke-width="0.552088" stroke-miterlimit="10"/>
<path d="M1755.34 -95.8637C1732.28 7.71248 1688.08 100.779 1628.09 156.549C1596.21 186.438 1561.28 196.101 1528.75 223.002C1492.14 253.289 1452.51 273.185 1411.45 286.517C1383.31 295.667 1354.45 301.66 1325.32 305.551C1267.92 313.222 1209.4 312.958 1152.63 303.628C1119.44 298.172 1086.96 290.095 1055.36 280.238C1032.34 273.059 1009.38 265.043 986.479 256.178C953.61 243.455 920.493 228.41 885.657 221.988C873.517 219.75 861.283 218.644 849.026 218.331C796.596 216.747 742.135 221.95 696.044 245.499C684.148 251.579 672.788 258.804 661.978 267.332C620.098 300.371 583.317 350.133 552.733 410.045C547.491 420.287 542.371 430.904 537.291 441.733C519.167 480.382 501.554 521.691 480.936 557.888C468.642 579.498 455.537 600.579 439.444 613.663C429.422 621.817 418.595 626.218 406.885 627.08C394.893 627.964 383.186 626.304 370.928 624.412C328.991 617.721 280.56 614.364 243.407 644.806" stroke="#042870" stroke-width="0.552088" stroke-miterlimit="10"/>
<path d="M1752.7 -93.0984C1731.26 11.346 1687.86 105.082 1628.26 160.608C1595.92 190.984 1560.41 200.241 1527.52 227.972C1490.59 259.123 1450.61 280.017 1409.11 294.065C1380.68 303.706 1351.49 310.065 1322 314.086C1263.9 321.999 1204.56 321.012 1146.91 309.995C1113.2 303.555 1080.18 294.166 1048.01 282.802C1024.55 274.512 1001.18 265.273 977.883 255.162C944.428 240.64 910.767 223.768 875.354 216.241C863.026 213.623 850.606 212.228 838.17 211.73C784.91 209.369 729.918 216.606 683.467 242.687C671.493 249.41 660.064 257.304 649.186 266.496C607.128 302.028 570.523 354.399 540.257 416.602C535.074 427.232 530.008 438.237 524.985 449.443C507.054 489.432 489.594 531.934 468.877 568.827C456.517 590.856 443.228 612.047 426.931 625.432C416.776 633.779 405.825 638.45 394.04 639.755C381.895 641.101 369.962 639.95 357.499 638.46C314.885 633.181 266.09 629.582 228.171 659.658" stroke="#042870" stroke-width="0.552088" stroke-miterlimit="10"/>
<path d="M1750.07 -90.3308C1730.25 14.9875 1687.65 109.382 1628.43 164.669C1595.62 195.527 1559.49 204.26 1526.3 232.945C1489.01 264.832 1448.7 286.847 1406.78 301.617C1378.05 311.753 1348.53 318.477 1318.68 322.618C1259.89 330.772 1199.73 329.057 1141.18 316.364C1106.96 308.945 1073.4 298.24 1040.67 285.369C1016.76 275.969 992.973 265.504 969.289 254.144C935.252 237.821 901.042 219.24 865.051 210.49C852.535 207.528 839.931 205.804 827.316 205.12C773.229 201.983 717.701 211.26 670.889 239.872C658.837 247.238 647.341 255.806 636.394 265.656C594.158 303.683 557.725 358.662 527.778 423.152C522.649 434.17 517.645 445.568 512.671 457.146C494.934 498.474 477.632 542.175 456.809 579.758C444.386 602.205 430.914 623.501 414.41 637.194C404.123 645.734 393.048 650.675 381.188 652.422C368.889 654.23 356.731 653.589 344.062 652.506C300.768 648.639 251.616 644.804 212.924 674.507" stroke="#042870" stroke-width="0.552088" stroke-miterlimit="10"/>
<path d="M1747.43 -87.5588C1729.24 18.6281 1687.44 113.686 1628.6 168.734C1595.33 200.079 1558.63 208.417 1525.07 237.928C1487.47 270.689 1446.79 293.691 1404.45 309.178C1375.42 319.804 1345.58 326.899 1315.37 331.165C1255.87 339.561 1194.9 337.124 1135.47 322.749C1100.72 314.344 1066.63 302.329 1033.32 287.951C1008.98 277.44 984.78 265.678 960.696 253.141C926.087 234.917 891.313 214.595 854.751 204.755C842.048 201.408 829.256 199.395 816.461 198.526C761.545 194.612 705.482 205.924 658.31 237.067C646.181 245.075 634.613 254.314 623.604 264.832C581.187 305.347 544.933 362.94 515.303 429.722C510.229 441.133 505.281 452.914 500.364 464.869C482.82 507.537 465.672 552.432 444.748 590.704C432.26 613.57 418.607 634.975 401.896 648.97C391.475 657.703 380.277 662.914 368.338 665.098C355.889 667.374 343.501 667.231 330.628 666.561C286.657 664.106 237.141 660.03 197.679 689.361" stroke="#042870" stroke-width="0.552088" stroke-miterlimit="10"/>
<path d="M1744.8 -84.7928C1728.23 22.2625 1687.23 117.989 1628.78 172.798C1595.04 204.625 1557.76 212.568 1523.84 242.904C1485.93 276.546 1444.89 300.53 1402.12 316.738C1372.79 327.859 1342.62 335.321 1312.05 339.706C1251.85 348.345 1190.07 345.178 1129.75 329.128C1094.48 319.744 1059.85 306.407 1025.98 290.527C1001.19 278.905 976.575 265.924 952.098 252.138C916.904 232.12 881.585 209.954 844.444 199.02C831.551 195.289 818.574 192.986 805.602 191.932C749.86 187.241 693.256 200.583 645.727 234.263C633.52 242.913 621.881 252.821 610.807 264.003C568.205 307.006 532.133 367.213 502.818 436.281C497.802 448.081 492.91 460.25 488.049 472.582C470.698 516.589 453.704 562.677 432.683 601.645C420.129 624.929 406.293 646.445 389.377 660.741C378.824 669.667 367.502 675.154 355.487 677.774C342.89 680.523 330.271 680.88 317.193 680.611C272.541 679.569 222.669 675.255 182.436 704.214" stroke="#042870" stroke-width="0.552088" stroke-miterlimit="10"/>
<path d="M1742.16 -82.0279C1727.22 25.9012 1687.01 122.286 1628.95 176.857C1594.74 209.171 1556.89 216.714 1522.61 247.88C1484.39 282.397 1442.98 307.368 1399.78 324.292C1370.16 335.909 1339.66 343.737 1308.74 348.246C1247.83 357.127 1185.23 353.232 1124.03 335.5C1088.24 325.131 1053.08 310.484 1018.63 293.096C993.403 280.364 968.374 266.169 943.506 251.122C907.73 229.315 871.859 205.301 834.146 193.277C821.067 189.162 807.901 186.569 794.75 185.331C738.178 179.863 681.037 195.24 633.154 231.45C620.866 240.744 609.159 251.32 598.018 263.166C555.232 308.653 519.342 371.478 490.344 442.838C485.383 455.032 480.551 467.583 475.743 480.292C458.586 525.644 441.749 572.92 420.624 612.583C408.006 636.287 393.987 657.906 376.864 672.51C366.181 681.623 354.737 687.396 342.643 690.448C329.896 693.665 317.048 694.52 303.765 694.664C258.433 695.034 208.2 690.484 167.197 719.065" stroke="#042870" stroke-width="0.552088" stroke-miterlimit="10"/>
<path d="M1739.52 -79.2547C1726.21 29.5426 1686.8 126.597 1629.12 180.923C1594.44 213.719 1556.02 220.866 1521.38 252.858C1482.86 288.25 1441.08 314.208 1397.45 331.849C1367.52 343.956 1336.7 352.155 1305.41 356.789C1243.81 365.906 1180.39 361.294 1118.3 341.881C1082 330.532 1046.3 314.473 1011.28 295.68C985.622 281.769 960.167 266.423 934.905 250.121C898.545 226.525 862.126 200.657 823.836 187.543C810.567 183.045 797.219 180.162 783.888 178.739C726.49 172.493 668.754 189.745 620.568 228.653C608.188 238.546 596.424 249.835 585.218 262.344C542.244 310.32 506.536 375.758 477.86 449.404C472.954 461.986 468.18 474.931 463.425 488.012C446.461 534.703 429.778 583.173 408.551 623.526C395.868 647.642 381.666 669.378 364.339 684.283C353.522 693.59 341.958 699.637 329.782 703.127C316.89 706.821 303.808 708.171 290.32 708.722C244.311 710.504 193.718 705.712 151.946 733.926" stroke="#042870" stroke-width="0.552088" stroke-miterlimit="10"/>
<path d="M1736.89 -76.4883C1725.2 33.1778 1686.59 130.896 1629.29 184.983C1594.15 218.266 1555.15 225.019 1520.15 257.836C1481.32 294.102 1439.17 321.042 1395.11 339.405C1364.89 352.008 1333.74 360.572 1302.1 365.325C1239.79 374.685 1175.56 369.345 1112.58 348.255C1075.76 335.921 1039.53 318.568 1003.93 298.251C977.834 283.241 951.962 266.665 926.31 249.113C889.369 223.728 852.398 196.012 813.532 181.803C800.075 176.915 786.54 173.748 773.032 172.14C714.804 165.117 656.537 184.431 607.988 225.842C595.531 236.389 583.678 248.3 572.427 261.509C529.191 311.81 493.743 380.025 465.383 455.964C460.535 468.939 455.815 482.266 451.115 495.719C434.345 543.749 417.82 593.418 396.489 634.461C383.74 658.996 369.357 680.842 351.822 696.048C340.873 705.549 329.19 711.877 316.934 715.792C303.896 719.96 290.58 721.802 276.89 722.76C230.201 725.954 179.247 720.927 136.705 748.768" stroke="#042870" stroke-width="0.552088" stroke-miterlimit="10"/>
<path d="M1734.25 -73.7218C1724.19 36.818 1686.37 135.195 1629.46 189.042C1593.85 222.808 1554.28 229.165 1518.92 262.807C1479.78 299.954 1437.27 327.875 1392.78 346.955C1362.26 360.048 1330.78 368.978 1298.78 373.861C1235.77 383.463 1170.73 377.394 1106.86 354.623C1069.52 341.31 1032.75 322.657 996.588 300.817C970.049 284.712 943.757 266.906 917.714 248.094C880.188 220.92 842.671 191.355 803.23 176.051C789.583 170.779 775.862 167.322 762.175 165.529C703.121 157.729 644.321 179.111 595.407 223.021C582.873 234.216 570.949 246.802 559.632 260.668C516.227 313.507 480.945 384.281 452.901 462.512C448.108 475.876 443.448 489.59 438.802 503.42C422.226 552.79 405.854 603.653 384.422 645.391C371.609 670.345 357.041 692.295 339.303 707.808C328.221 717.502 316.421 724.11 304.082 728.458C290.899 733.103 277.349 735.44 263.455 736.804C216.088 741.405 164.775 736.147 121.462 763.61" stroke="#042870" stroke-width="0.552088" stroke-miterlimit="10"/>
<path d="M1731.62 -70.9513C1723.18 40.4568 1686.16 139.503 1629.63 193.112C1593.56 227.365 1553.42 233.321 1517.69 267.789C1478.24 305.81 1435.36 334.719 1390.44 354.52C1359.63 368.109 1327.82 377.405 1295.46 382.407C1231.75 392.251 1165.9 385.459 1101.14 361.007C1063.28 346.709 1025.97 326.762 989.238 303.398C962.259 286.194 935.551 267.158 909.114 247.09C871.007 218.127 832.936 186.709 792.92 170.315C779.087 164.659 765.181 160.918 751.314 158.934C691.43 150.358 632.099 173.807 582.822 220.221C570.212 232.07 558.22 245.33 546.832 259.844C503.255 315.22 468.143 388.559 440.416 469.082C435.677 482.834 431.075 496.936 426.485 511.143C410.102 561.852 393.884 613.909 372.351 656.336C359.474 681.709 344.724 703.769 326.778 719.585C315.564 729.471 303.656 736.403 291.223 741.139C277.903 746.306 264.111 749.088 250.012 750.865C201.964 756.878 150.291 751.383 106.208 778.474" stroke="#042870" stroke-width="0.552088" stroke-miterlimit="10"/>
<path d="M1728.98 -68.1838C1722.17 44.0927 1685.95 143.802 1629.8 197.172C1593.26 231.907 1552.55 237.468 1516.47 272.767C1476.7 311.663 1433.46 341.559 1388.11 362.076C1295.75 403.872 1194.41 406.789 1095.41 367.381C1028.82 340.872 963.848 296.41 900.521 246.077C861.829 215.325 823.213 182.058 782.621 164.569C707.996 132.419 631.375 157.18 570.247 217.406C509.12 277.631 462.528 371.135 427.943 475.636C396.556 570.464 371.261 680.733 314.268 731.35C249.087 789.237 161.221 751.468 90.9739 793.317" stroke="#042870" stroke-width="0.552088" stroke-miterlimit="10"/>
</g>
<defs>
<clipPath id="clip0_1048_3160">
<rect width="2226.37" height="743.862" fill="white" transform="translate(-401 101.305) rotate(-6.58474)"/>
</clipPath>
</defs>
</svg>
